        <svg class="kolobki" xmlns="http://www.w3.org/2000/svg">
          <ellipse cx="250" cy="300" rx='65' ry='15' fill='#949292'/>
          <circle cx="250" cy="200" r='100' fill='orange'/> 
          <circle cx="240" cy="180" r='40' fill='white'/>
          <circle cx="290" cy="180" r='40' fill='white'/>
          <circle cx="267" cy="215" r='13' fill='black'/>
          <circle cx="255" cy="180" r='8' fill='black'/>
          <circle cx="294" cy="180" r='8' fill='black'/>
          <ellipse cx="255" cy="250" rx='15' ry='9' fill='#f51f3d'/>
          <ellipse class="tail" cx="166" cy="180" rx='65' ry='25' fill='orange'/>
          <polygon points="55,198 85,190 73,220"  fill="white" />
          <polygon points="175,100 220,110 175,140"  fill="orange" />
          <polygon points="178,105 207,112 178,133"  fill="black" />
          <polygon points="270,82 240,105 283,106"  fill="orange" />
          <polygon points="270,86 252,100 279,103"  fill="black" />

          <ellipse cx="550" cy="300" rx='65' ry='15' fill='#949292'/>
          <circle cx="550" cy="200" r='100' fill='#faf704'/>
          <circle cx="505" cy="180" r='40' fill='white'/>
          <circle cx="555" cy="180" r='40' fill='white'/>
          <circle cx="500" cy="180" r='8' fill='black'/>
          <circle cx="545" cy="180" r='8' fill='black'/>
          <ellipse cx="530" cy="250" rx='9' ry='20' fill='#f51f3d'/>
          
        </svg>
